<svg width="678" height="400" viewBox="0 0 678 400" fill="none" xmlns="http://www.w3.org/2000/svg">
<path d="M299.255 92.522C301.352 92.522 303.006 93.248 304.216 94.7C305.426 96.152 306.031 98.1687 306.031 100.75C306.031 101.395 305.991 102.081 305.91 102.807C305.829 103.452 305.708 104.017 305.547 104.501C303.853 104.098 301.998 103.856 299.981 103.775C299.497 107.324 298.206 111.075 296.109 115.028C294.012 118.9 291.471 122.57 288.486 126.039C285.501 129.427 282.234 132.412 278.685 134.993C275.136 137.574 271.627 139.309 268.158 140.196C257.349 139.954 249.443 137.131 244.442 131.726C239.521 126.402 237.061 118.053 237.061 106.679C237.061 98.3703 238.594 90.344 241.659 82.6C244.724 74.7753 248.798 67.838 253.88 61.788C258.962 55.738 264.77 50.898 271.304 47.268C277.919 43.5573 284.775 41.702 291.874 41.702C297.44 41.702 301.756 42.8717 304.821 45.211C307.967 47.5503 309.54 50.8577 309.54 55.133C309.54 57.9563 308.854 60.578 307.483 62.998C306.192 65.418 304.014 68.0397 300.949 70.863C299.094 70.2983 297.48 69.3303 296.109 67.959C294.738 66.507 293.891 64.8533 293.568 62.998C296.311 60.9813 298.247 59.126 299.376 57.432C300.505 55.738 301.07 53.7213 301.07 51.382C301.07 47.6713 298.852 45.816 294.415 45.816C290.785 45.816 286.873 47.1873 282.678 49.93C278.564 52.592 274.41 56.464 270.215 61.546C264.246 68.7253 259.89 76.1467 257.147 83.81C254.404 91.3927 253.033 99.9433 253.033 109.462C253.033 113.011 253.396 116.238 254.122 119.142C254.848 122.046 255.816 124.587 257.026 126.765C258.236 128.943 259.648 130.677 261.261 131.968C262.955 133.259 264.77 133.985 266.706 134.146C269.287 133.581 271.869 132.291 274.45 130.274C277.031 128.177 279.371 125.757 281.468 123.014C283.646 120.191 285.461 117.206 286.913 114.06C288.446 110.833 289.373 107.768 289.696 104.864C287.437 105.348 285.259 105.832 283.162 106.316C281.145 106.719 279.209 106.921 277.354 106.921C274.934 106.921 272.796 106.316 270.941 105.106C269.166 103.896 267.956 102.242 267.311 100.145C268.763 99.3383 270.86 98.4913 273.603 97.604C276.426 96.7167 279.411 95.91 282.557 95.184C285.703 94.3773 288.768 93.732 291.753 93.248C294.818 92.764 297.319 92.522 299.255 92.522ZM347.978 138.744C346.123 139.712 344.147 140.196 342.049 140.196C339.468 139.873 336.967 139.228 334.547 138.26C332.208 137.292 330.474 136.122 329.344 134.751C328.699 130.798 328.175 127.168 327.771 123.861C327.368 120.554 327.045 117.448 326.803 114.544C326.561 111.559 326.4 108.736 326.319 106.074C326.239 103.331 326.198 100.589 326.198 97.846C326.198 94.216 326.239 90.3843 326.319 86.351C326.4 82.3177 326.481 78.0423 326.561 73.525C326.723 68.927 326.844 64.0467 326.924 58.884C327.005 53.6407 327.045 47.9537 327.045 41.823C328.094 41.823 329.667 42.1457 331.764 42.791C333.862 43.3557 335.919 44.0413 337.935 44.848C340.033 45.6547 341.888 46.5017 343.501 47.389C345.115 48.1957 346.002 48.8813 346.163 49.446C345.357 51.7047 344.631 54.649 343.985 58.279C343.421 61.909 342.937 65.9423 342.533 70.379C342.211 74.8157 341.969 79.4943 341.807 84.415C341.646 89.3357 341.565 94.216 341.565 99.056C341.565 102.686 341.606 105.953 341.686 108.857C341.767 111.68 341.848 114.262 341.928 116.601C342.09 118.86 342.291 120.997 342.533 123.014C342.775 124.95 343.058 126.886 343.38 128.822C345.639 121.965 348.099 115.109 350.761 108.252C353.504 101.395 356.287 94.821 359.11 88.529C362.014 82.1563 364.878 76.2273 367.701 70.742C370.525 65.2567 373.187 60.4973 375.687 56.464C378.269 52.35 380.568 49.1233 382.584 46.784C384.601 44.364 386.255 43.0733 387.545 42.912C388.433 43.0733 389.36 43.4363 390.328 44.001C391.377 44.485 392.345 45.09 393.232 45.816C394.12 46.542 394.926 47.3487 395.652 48.236C396.378 49.1233 396.943 50.0107 397.346 50.898C394.362 51.9467 391.135 54.407 387.666 58.279C384.278 62.151 380.85 66.8297 377.381 72.315C373.913 77.7197 370.525 83.6487 367.217 90.102C363.991 96.4747 361.046 102.726 358.384 108.857C355.803 114.988 353.585 120.715 351.729 126.039C349.874 131.363 348.624 135.598 347.978 138.744ZM466.46 64.329C466.46 68.201 465.573 71.8713 463.798 75.34C462.104 78.728 459.724 81.7933 456.659 84.536C453.594 87.198 450.004 89.4567 445.89 91.312C441.776 93.1673 437.299 94.4177 432.459 95.063C433.669 98.693 435.121 102.444 436.815 106.316C438.59 110.107 440.485 113.778 442.502 117.327C444.519 120.876 446.616 124.143 448.794 127.128C450.972 130.113 453.11 132.573 455.207 134.509C454.804 135.316 454.199 136.122 453.392 136.929C452.666 137.736 451.779 138.462 450.73 139.107C449.762 139.833 448.713 140.398 447.584 140.801C446.535 141.285 445.527 141.527 444.559 141.527C442.784 141.527 441.09 140.68 439.477 138.986C437.864 137.292 436.21 134.63 434.516 131C432.903 127.289 431.168 122.53 429.313 116.722C427.538 110.833 425.562 103.775 423.384 95.547C422.497 95.547 421.609 95.547 420.722 95.547C419.835 95.547 419.149 95.4663 418.665 95.305C418.1 94.9823 417.495 94.4177 416.85 93.611C414.672 98.2897 412.736 102.686 411.042 106.8C409.348 110.914 407.815 114.907 406.444 118.779C405.153 122.57 403.984 126.281 402.935 129.911C401.967 133.46 401.12 137.09 400.394 140.801C397.651 140.156 395.272 138.986 393.255 137.292C391.238 135.598 389.343 133.218 387.568 130.153C387.891 129.427 388.213 128.741 388.536 128.096C388.939 127.37 389.423 126.402 389.988 125.192C390.553 123.901 391.238 122.288 392.045 120.352C392.932 118.416 394.062 115.835 395.433 112.608C396.885 109.381 398.579 105.429 400.515 100.75C402.532 96.0713 404.952 90.3843 407.775 83.689C409.066 80.7043 410.155 78.0827 411.042 75.824C412.01 73.5653 412.857 71.4277 413.583 69.411C414.309 67.3137 414.954 65.2567 415.519 63.24C416.164 61.1427 416.81 58.763 417.455 56.101C413.744 57.3917 410.276 58.8437 407.049 60.457C403.903 61.9897 401.281 63.6433 399.184 65.418C398.458 64.934 397.692 64.208 396.885 63.24C396.159 62.272 395.473 61.2233 394.828 60.094C394.183 58.884 393.618 57.674 393.134 56.464C392.65 55.254 392.368 54.165 392.287 53.197C394.707 51.5837 397.651 50.0913 401.12 48.72C404.669 47.3487 408.42 46.179 412.373 45.211C416.326 44.1623 420.359 43.3557 424.473 42.791C428.587 42.2263 432.419 41.944 435.968 41.944C445.648 41.944 453.15 43.9607 458.474 47.994C463.798 51.9467 466.46 57.3917 466.46 64.329ZM436.936 54.165C436.371 54.891 435.484 56.343 434.274 58.521C433.064 60.699 431.652 63.3207 430.039 66.386C428.506 69.3707 426.853 72.6377 425.078 76.187C423.384 79.7363 421.73 83.2453 420.117 86.714C426.167 86.714 431.733 86.1493 436.815 85.02C441.897 83.8907 446.293 82.3177 450.004 80.301C453.715 78.2037 456.578 75.7837 458.595 73.041C460.692 70.2177 461.741 67.112 461.741 63.724C461.741 59.6907 460.289 56.6253 457.385 54.528C454.481 52.35 450.004 51.261 443.954 51.261C442.583 51.261 441.211 51.3417 439.84 51.503C438.469 51.5837 437.017 51.7047 435.484 51.866L436.936 54.165Z" fill="#BF354A"/>
<g filter="url(#filter0_d_2_82)">
<line x1="211" y1="195" x2="454" y2="195" stroke="#BF354A" stroke-width="4"/>
<line x1="452.084" y1="194.319" x2="483.084" y2="214.319" stroke="#BF354A" stroke-width="4"/>
<line x1="481" y1="215" x2="673" y2="215" stroke="#BF354A" stroke-width="6"/>
<line x1="670.944" y1="212.578" x2="649.944" y2="319.578" stroke="#BF354A" stroke-width="6"/>
<line x1="650" y1="318" x2="594" y2="318" stroke="#BF354A" stroke-width="4"/>
<line x1="596.517" y1="317.683" x2="556.517" y2="258.683" stroke="#BF354A" stroke-width="6"/>
<line x1="558.325" y1="259.923" x2="480.325" y2="241.923" stroke="#BF354A" stroke-width="6"/>
<line x1="483" y1="242" x2="483" y2="214" stroke="#BF354A" stroke-width="4"/>
<line x1="478.227" y1="240.987" x2="443.227" y2="244.987" stroke="#BF354A" stroke-width="4"/>
<line x1="446" y1="245" x2="383" y2="245" stroke="#BF354A" stroke-width="4"/>
<line x1="384.249" y1="244.562" x2="369.249" y2="256.562" stroke="#BF354A" stroke-width="4"/>
<line x1="370.38" y1="255.964" x2="339.38" y2="261.964" stroke="#BF354A" stroke-width="4"/>
<line x1="341.599" y1="261.959" x2="258.599" y2="244.959" stroke="#BF354A" stroke-width="4"/>
<line x1="259" y1="245" x2="172" y2="245" stroke="#BF354A" stroke-width="4"/>
<line x1="167.586" y1="239.586" x2="212.586" y2="194.586" stroke="#BF354A" stroke-width="4"/>
<line x1="179" y1="226" x2="312" y2="226" stroke="#BF354A" stroke-width="4"/>
<line x1="173.211" y1="245.894" x2="165.211" y2="229.894" stroke="#BF354A" stroke-width="4"/>
<line x1="307.766" y1="226.062" x2="324.766" y2="258.062" stroke="#BF354A" stroke-width="4"/>
<line x1="316" y1="241" x2="481" y2="241" stroke="#BF354A" stroke-width="4"/>
<line x1="481.458" y1="215.035" x2="578.458" y2="230.035" stroke="#BF354A" stroke-width="6"/>
<line x1="578" y1="230" x2="668" y2="230" stroke="#BF354A" stroke-width="6"/>
<line x1="312" y1="212.5" x2="388" y2="212.5" stroke="#BF354A" stroke-width="5"/>
<line x1="479.759" y1="239.953" x2="466.759" y2="263.953" stroke="#BF354A" stroke-width="4"/>
<line x1="466.341" y1="262.122" x2="472.341" y2="278.122" stroke="#BF354A" stroke-width="5"/>
<line x1="471.668" y1="275.628" x2="489.668" y2="310.628" stroke="#BF354A" stroke-width="6"/>
<line x1="493.261" y1="310.722" x2="452.261" y2="329.722" stroke="#BF354A" stroke-width="6"/>
<line x1="460.286" y1="325.277" x2="444.286" y2="291.277" stroke="#BF354A" stroke-width="6"/>
<line x1="447.181" y1="291.992" x2="436.181" y2="292.992" stroke="#BF354A" stroke-width="4"/>
<line x1="435.093" y1="294.398" x2="441.093" y2="275.398" stroke="#BF354A" stroke-width="4"/>
<line x1="442.588" y1="277.957" x2="423.588" y2="273.957" stroke="#BF354A" stroke-width="4"/>
<path d="M426 274V274C440.803 270.298 439.952 249.013 424.968 246.13V246.13" stroke="#BF354A" stroke-width="4"/>
<path d="M397.727 276.019C396.633 276.17 395.868 277.179 396.019 278.273C396.17 279.367 397.179 280.132 398.273 279.981L397.727 276.019ZM426.727 272.019L397.727 276.019L398.273 279.981L427.273 275.981L426.727 272.019Z" fill="#BF354A"/>
<path d="M375.94 276.696C376.877 277.281 378.111 276.997 378.696 276.06C379.281 275.123 378.997 273.889 378.06 273.304L375.94 276.696ZM378.06 273.304L354.06 258.304L351.94 261.696L375.94 276.696L378.06 273.304Z" fill="#BF354A"/>
<circle cx="409.5" cy="249.5" r="5.5" fill="#BF354A"/>
<path d="M409.664 254V254C411.934 258.808 410.7 264.541 406.653 267.989L406 268.546" stroke="#BF354A" stroke-width="3"/>
<path d="M307.811 255.85L306.908 262.674C302.773 293.929 288.895 323.086 267.246 346.005L263.728 349.729" stroke="#BF354A" stroke-width="6"/>
<path d="M353.891 261.651L350.41 291.661C347.2 319.339 336.344 345.576 319.06 367.43L302 389" stroke="#BF354A" stroke-width="6"/>
<line x1="303.931" y1="389.172" x2="261.931" y2="349.172" stroke="#BF354A" stroke-width="6"/>
<path d="M4 221L181.5 223L170 235.5L4 237V221Z" fill="#BF354A"/>
<path d="M103 196L208 197.5L204.02 205H103V196Z" fill="#BF354A"/>
<rect x="111.766" y="183.041" width="11" height="58.6289" transform="rotate(35.1651 111.766 183.041)" fill="#BF354A"/>
<path d="M93 214C93 209.029 97.0294 205 102 205H119L118.291 206.181C114.111 213.148 114.111 221.852 118.291 228.819L119 230H93V214Z" fill="#BF354A"/>
<rect x="10" y="217" width="68" height="23" fill="#BF354A"/>
<rect x="288" y="176" width="4" height="17" fill="#BF354A"/>
<rect x="292" y="183" width="7" height="10" fill="#BF354A"/>
<rect x="299" y="186" width="27" height="7" fill="#BF354A"/>
<path d="M326 184H335L343 193H326V184Z" fill="#BF354A"/>
<rect x="348" y="186" width="49" height="7" fill="#BF354A"/>
<path d="M357 258.5L371 257.5L373 270.5L360 266L357 258.5Z" fill="#BF354A"/>
<line x1="377.283" y1="275.02" x2="398.283" y2="278.02" stroke="#BF354A" stroke-width="4"/>
</g>
<defs>
<filter id="filter0_d_2_82" x="0" y="176" width="677.888" height="223.345" filterUnits="userSpaceOnUse" color-interpolation-filters="sRGB">
<feFlood flood-opacity="0" result="BackgroundImageFix"/>
<feColorMatrix in="SourceAlpha" type="matrix" values="0 0 0 0 0 0 0 0 0 0 0 0 0 0 0 0 0 0 127 0" result="hardAlpha"/>
<feOffset dy="4"/>
<feGaussianBlur stdDeviation="2"/>
<feComposite in2="hardAlpha" operator="out"/>
<feColorMatrix type="matrix" values="0 0 0 0 0 0 0 0 0 0 0 0 0 0 0 0 0 0 0.25 0"/>
<feBlend mode="normal" in2="BackgroundImageFix" result="effect1_dropShadow_2_82"/>
<feBlend mode="normal" in="SourceGraphic" in2="effect1_dropShadow_2_82" result="shape"/>
</filter>
</defs>
</svg>
