<svg width="678" height="224" viewBox="0 0 678 224" fill="none" xmlns="http://www.w3.org/2000/svg">
<g filter="url(#filter0_d_3_85)">
<line x1="211" y1="19" x2="454" y2="19" stroke="#BF354A" stroke-width="4"/>
<line x1="452.084" y1="18.3194" x2="483.084" y2="38.3194" stroke="#BF354A" stroke-width="4"/>
<line x1="481" y1="39" x2="673" y2="39" stroke="#BF354A" stroke-width="6"/>
<line x1="670.944" y1="36.5778" x2="649.944" y2="143.578" stroke="#BF354A" stroke-width="6"/>
<line x1="650" y1="142" x2="594" y2="142" stroke="#BF354A" stroke-width="4"/>
<line x1="596.517" y1="141.683" x2="556.517" y2="82.6835" stroke="#BF354A" stroke-width="6"/>
<line x1="558.325" y1="83.9232" x2="480.325" y2="65.9232" stroke="#BF354A" stroke-width="6"/>
<line x1="483" y1="66" x2="483" y2="38" stroke="#BF354A" stroke-width="4"/>
<line x1="478.227" y1="64.9871" x2="443.227" y2="68.9871" stroke="#BF354A" stroke-width="4"/>
<line x1="446" y1="69" x2="383" y2="69" stroke="#BF354A" stroke-width="4"/>
<line x1="384.249" y1="68.5617" x2="369.249" y2="80.5617" stroke="#BF354A" stroke-width="4"/>
<line x1="370.38" y1="79.9636" x2="339.38" y2="85.9636" stroke="#BF354A" stroke-width="4"/>
<line x1="341.599" y1="85.9593" x2="258.599" y2="68.9593" stroke="#BF354A" stroke-width="4"/>
<line x1="259" y1="69" x2="172" y2="69" stroke="#BF354A" stroke-width="4"/>
<line x1="167.586" y1="63.5858" x2="212.586" y2="18.5858" stroke="#BF354A" stroke-width="4"/>
<line x1="179" y1="50" x2="312" y2="50" stroke="#BF354A" stroke-width="4"/>
<line x1="173.211" y1="69.8944" x2="165.211" y2="53.8944" stroke="#BF354A" stroke-width="4"/>
<line x1="307.766" y1="50.0617" x2="324.766" y2="82.0617" stroke="#BF354A" stroke-width="4"/>
<line x1="316" y1="65" x2="481" y2="65" stroke="#BF354A" stroke-width="4"/>
<line x1="481.458" y1="39.0352" x2="578.458" y2="54.0352" stroke="#BF354A" stroke-width="6"/>
<line x1="578" y1="54" x2="668" y2="54" stroke="#BF354A" stroke-width="6"/>
<line x1="312" y1="36.5" x2="388" y2="36.5" stroke="#BF354A" stroke-width="5"/>
<line x1="479.759" y1="63.9526" x2="466.759" y2="87.9526" stroke="#BF354A" stroke-width="4"/>
<line x1="466.341" y1="86.1222" x2="472.341" y2="102.122" stroke="#BF354A" stroke-width="5"/>
<line x1="471.668" y1="99.628" x2="489.668" y2="134.628" stroke="#BF354A" stroke-width="6"/>
<line x1="493.261" y1="134.722" x2="452.261" y2="153.722" stroke="#BF354A" stroke-width="6"/>
<line x1="460.286" y1="149.277" x2="444.286" y2="115.277" stroke="#BF354A" stroke-width="6"/>
<line x1="447.181" y1="115.992" x2="436.181" y2="116.992" stroke="#BF354A" stroke-width="4"/>
<line x1="435.093" y1="118.398" x2="441.093" y2="99.3977" stroke="#BF354A" stroke-width="4"/>
<line x1="442.588" y1="101.957" x2="423.588" y2="97.9571" stroke="#BF354A" stroke-width="4"/>
<path d="M426 98V98C440.803 94.2976 439.952 73.0133 424.968 70.13V70.13" stroke="#BF354A" stroke-width="4"/>
<path d="M397.727 100.019C396.633 100.17 395.868 101.179 396.019 102.273C396.17 103.367 397.179 104.132 398.273 103.981L397.727 100.019ZM426.727 96.0188L397.727 100.019L398.273 103.981L427.273 99.9812L426.727 96.0188Z" fill="#BF354A"/>
<path d="M375.94 100.696C376.877 101.281 378.111 100.997 378.696 100.06C379.281 99.1233 378.997 97.8894 378.06 97.304L375.94 100.696ZM378.06 97.304L354.06 82.304L351.94 85.696L375.94 100.696L378.06 97.304Z" fill="#BF354A"/>
<circle cx="409.5" cy="73.5" r="5.5" fill="#BF354A"/>
<path d="M409.664 78V78C411.934 82.8078 410.7 88.5407 406.653 91.989L406 92.5456" stroke="#BF354A" stroke-width="3"/>
<path d="M307.81 79.8501L306.908 86.6745C302.773 117.929 288.895 147.086 267.246 170.005L263.728 173.729" stroke="#BF354A" stroke-width="6"/>
<path d="M353.891 85.651L350.41 115.661C347.2 143.339 336.344 169.576 319.06 191.43L302 213" stroke="#BF354A" stroke-width="6"/>
<line x1="303.931" y1="213.172" x2="261.931" y2="173.172" stroke="#BF354A" stroke-width="6"/>
<path d="M4 45L181.5 47L170 59.5L4 61V45Z" fill="#BF354A"/>
<path d="M103 20L208 21.5L204.02 29H103V20Z" fill="#BF354A"/>
<rect x="111.766" y="7.04089" width="11" height="58.6289" transform="rotate(35.1651 111.766 7.04089)" fill="#BF354A"/>
<path d="M93 38C93 33.0294 97.0294 29 102 29H119L118.291 30.1811C114.111 37.1481 114.111 45.8519 118.291 52.8189L119 54H93V38Z" fill="#BF354A"/>
<rect x="10" y="41" width="68" height="23" fill="#BF354A"/>
<rect x="288" width="4" height="17" fill="#BF354A"/>
<rect x="292" y="7" width="7" height="10" fill="#BF354A"/>
<rect x="299" y="10" width="27" height="7" fill="#BF354A"/>
<path d="M326 8H335L343 17H326V8Z" fill="#BF354A"/>
<rect x="348" y="10" width="49" height="7" fill="#BF354A"/>
<path d="M357 82.5L371 81.5L373 94.5L360 90L357 82.5Z" fill="#BF354A"/>
<line x1="377.283" y1="99.0201" x2="398.283" y2="102.02" stroke="#BF354A" stroke-width="4"/>
</g>
<defs>
<filter id="filter0_d_3_85" x="0" y="0" width="677.888" height="223.345" filterUnits="userSpaceOnUse" color-interpolation-filters="sRGB">
<feFlood flood-opacity="0" result="BackgroundImageFix"/>
<feColorMatrix in="SourceAlpha" type="matrix" values="0 0 0 0 0 0 0 0 0 0 0 0 0 0 0 0 0 0 127 0" result="hardAlpha"/>
<feOffset dy="4"/>
<feGaussianBlur stdDeviation="2"/>
<feComposite in2="hardAlpha" operator="out"/>
<feColorMatrix type="matrix" values="0 0 0 0 0 0 0 0 0 0 0 0 0 0 0 0 0 0 0.25 0"/>
<feBlend mode="normal" in2="BackgroundImageFix" result="effect1_dropShadow_3_85"/>
<feBlend mode="normal" in="SourceGraphic" in2="effect1_dropShadow_3_85" result="shape"/>
</filter>
</defs>
</svg>
